<svg width="40" height="40" viewBox="0 0 40 40" fill="none" xmlns="http://www.w3.org/2000/svg">
<path d="M35.9906 6.38747C35.7813 6.39372 35.5813 6.48122 35.4344 6.63435L20 22.0687L4.56562 6.63435C4.41562 6.4781 4.20937 6.39372 3.99375 6.39372C3.66562 6.39372 3.375 6.5906 3.25 6.8906C3.12812 7.19372 3.2 7.53747 3.43437 7.7656L20 24.3312L36.5656 7.7656C36.8031 7.53747 36.875 7.18435 36.75 6.88122C36.6219 6.5781 36.3219 6.38122 35.9906 6.38747ZM35.9906 16.7875C35.7813 16.7937 35.5813 16.8812 35.4344 17.0343L20 32.4687L4.56562 17.0343C4.41562 16.8781 4.20937 16.7937 3.99375 16.7906C3.66562 16.7937 3.375 16.9906 3.25 17.2906C3.12812 17.5937 3.2 17.9375 3.43437 18.1656L20 34.7312L36.5656 18.1656C36.8031 17.9375 36.875 17.5843 36.75 17.2812C36.6219 16.9781 36.3219 16.7812 35.9906 16.7875Z" fill="white"/>
</svg>
