<svg width="30" height="30" viewBox="0 0 30 30" fill="none" xmlns="http://www.w3.org/2000/svg">
<path d="M14.6414 5.39999C10.6805 5.39999 6.96093 5.69999 4.98046 6.11953C3.66093 6.41953 2.51952 7.31953 2.28046 8.69999C2.04139 10.1391 1.79999 12.3 1.79999 15C1.79999 17.7 2.03905 19.8 2.33905 21.3C2.58046 22.6195 3.71952 23.5805 5.03905 23.8805C7.14139 24.3 10.739 24.6 14.7 24.6C18.6609 24.6 22.2586 24.3 24.3586 23.8805C25.6805 23.5805 26.8195 22.6805 27.0586 21.3C27.3 19.8 27.6 17.6414 27.6586 14.9414C27.6586 12.2414 27.3586 10.0805 27.0586 8.58046C26.8195 7.26093 25.6805 6.29999 24.3586 5.99999C22.2586 5.69999 18.6 5.39999 14.6414 5.39999ZM14.6414 6.59999C18.9609 6.59999 22.439 6.95859 24.1195 7.25859C25.0195 7.49999 25.739 8.09999 25.8586 8.88046C26.2195 10.8 26.4586 12.8414 26.4586 14.9414C26.4 17.5195 26.1 19.6195 25.8586 21.1195C25.6805 22.2586 24.4805 22.6195 24.1195 22.7414C21.9586 23.1609 18.3586 23.4586 14.7586 23.4586C11.1586 23.4586 7.49999 23.2195 5.39999 22.7414C4.49999 22.5 3.78046 21.9 3.66093 21.1195C3.18046 19.4391 2.99999 17.2195 2.99999 15C2.99999 12.2391 3.24139 10.2 3.48046 8.9414C3.66093 7.79999 4.91952 7.43906 5.21952 7.31953C7.19999 6.89999 10.8609 6.59999 14.6414 6.59999ZM11.4 10.2V19.8L19.8 15L11.4 10.2ZM12.6 12.2414L17.4 15L12.6 17.7586V12.2414Z" fill="white"/>
</svg>
