<svg width="30" height="30" viewBox="0 0 30 30" fill="none" xmlns="http://www.w3.org/2000/svg">
<path d="M9.59999 1.79999C5.29948 1.79999 1.79999 5.29948 1.79999 9.59999V20.4C1.79999 24.7005 5.29948 28.2 9.59999 28.2H20.4C24.7005 28.2 28.2 24.7005 28.2 20.4V9.59999C28.2 5.29948 24.7005 1.79999 20.4 1.79999H9.59999ZM9.59999 2.99999H20.4C24.0519 2.99999 27 5.9481 27 9.59999V20.4C27 24.0519 24.0519 27 20.4 27H9.59999C5.9481 27 2.99999 24.0519 2.99999 20.4V9.59999C2.99999 5.9481 5.9481 2.99999 9.59999 2.99999ZM22.2 6.59999C21.8817 6.59999 21.5765 6.72642 21.3515 6.95146C21.1264 7.1765 21 7.48173 21 7.79999C21 8.11825 21.1264 8.42347 21.3515 8.64852C21.5765 8.87356 21.8817 8.99999 22.2 8.99999C22.5182 8.99999 22.8235 8.87356 23.0485 8.64852C23.2736 8.42347 23.4 8.11825 23.4 7.79999C23.4 7.48173 23.2736 7.1765 23.0485 6.95146C22.8235 6.72642 22.5182 6.59999 22.2 6.59999ZM15 8.39999C11.362 8.39999 8.39999 11.362 8.39999 15C8.39999 18.638 11.362 21.6 15 21.6C18.638 21.6 21.6 18.638 21.6 15C21.6 11.362 18.638 8.39999 15 8.39999ZM15 9.59999C17.9894 9.59999 20.4 12.0105 20.4 15C20.4 17.9894 17.9894 20.4 15 20.4C12.0105 20.4 9.59999 17.9894 9.59999 15C9.59999 12.0105 12.0105 9.59999 15 9.59999Z" fill="white"/>
</svg>
