<svg width="30" height="30" viewBox="0 0 30 30" fill="none" xmlns="http://www.w3.org/2000/svg">
<path d="M15 1.79999C7.71693 1.79999 1.79999 7.71692 1.79999 15C1.79999 21.6115 6.67651 27.083 13.0277 28.0371L13.7168 28.1414V17.7398H10.5984V15.6281H13.7168V12.8238C13.7168 11.097 14.1312 9.95964 14.8172 9.24608C15.5032 8.53253 16.5168 8.17264 17.9273 8.17264C19.0552 8.17264 19.494 8.24098 19.9113 8.29217V10.0207H18.443C17.6098 10.0207 16.9263 10.4855 16.5715 11.1047C16.2167 11.7238 16.1062 12.4631 16.1062 13.2164V15.6269H19.7801L19.4531 17.7387H16.1062V28.1578L16.7871 28.0652C23.2286 27.1916 28.2 21.6761 28.2 15C28.2 7.71692 22.2831 1.79999 15 1.79999ZM15 2.99999C21.6345 2.99999 27 8.36545 27 15C27 20.8379 22.8215 25.6391 17.3062 26.7199V18.9387H20.482L21.1793 14.4269H17.3062V13.2164C17.3062 12.5939 17.4201 12.0362 17.6121 11.7012C17.8041 11.3662 17.9891 11.2207 18.443 11.2207H21.1113V7.20585L20.591 7.13553C20.2311 7.08684 19.4095 6.97264 17.9273 6.97264C16.3055 6.97264 14.9133 7.41446 13.9523 8.41405C12.9913 9.41364 12.5168 10.9021 12.5168 12.8238V14.4281H9.39843V18.9398H12.5168V26.6824C7.09018 25.5329 2.99999 20.7747 2.99999 15C2.99999 8.36545 8.36545 2.99999 15 2.99999Z" fill="white"/>
</svg>
