<?xml version="1.0" encoding="utf-8"?>
<svg xmlns="http://www.w3.org/2000/svg" viewBox="0 0 32 32" width="64" height="64">
  <path d="M18.46875 2.90625L17.8125 3C13.445313 3.648438 9.96875 7.445313 9.96875 12C9.96875 16.976563 13.992188 21 18.96875 21C21.824219 21 24.15625 19.734375 25.78125 17.65625L26.25 17.0625L25.8125 16.46875L25.78125 16.4375L25.3125 15.75L24.5625 16.09375C23.707031 16.484375 23.210938 16.59375 22.1875 16.59375C18.578125 16.59375 15.6875 13.671875 15.6875 10.0625C15.6875 7.945313 16.929688 6.054688 18.59375 4.84375L19.34375 4.28125L18.84375 3.5L18.8125 3.46875 Z M 24 4.875L23.125 6.6875L22.4375 8.0625L20.875 8.3125L18.875 8.59375L20.3125 10.03125L21.4375 11.125L21.1875 12.65625L20.84375 14.65625L22.625 13.71875L24 13L25.40625 13.71875L27.1875 14.65625L26.84375 12.65625L26.59375 11.125L27.71875 10.03125L29.15625 8.59375L27.15625 8.3125L25.59375 8.0625 Z M 14.46875 6.84375C14.011719 7.835938 13.6875 8.894531 13.6875 10.0625C13.6875 14.507813 17.148438 18.066406 21.5 18.4375C20.742188 18.75 19.9375 19 18.96875 19C15.058594 19 11.96875 15.910156 11.96875 12C11.96875 9.929688 12.996094 8.148438 14.46875 6.84375 Z M 24 9.375L24.03125 9.4375L24.28125 9.90625L24.78125 10L24.875 10L24.8125 10.0625L24.4375 10.40625L24.53125 10.9375L24.53125 11L24.46875 10.96875L24 10.71875L23.5625 10.96875L23.5 11L23.5 10.9375L23.59375 10.40625L23.21875 10.0625L23.15625 10L23.21875 10L23.75 9.90625L23.96875 9.4375 Z M 10.40625 20.0625C9.378906 20.066406 8.59375 20.3125 8.59375 20.3125L8.5625 20.3125L8.53125 20.34375L3.8125 22.15625L2.875 22.5L3.21875 23.40625L4.53125 27.09375L4.875 28.0625L5.84375 27.71875L9.8125 26.1875L16.53125 29.875L16.9375 30.09375L17.375 29.9375L29.25 25L28.5 23.15625L17.03125 27.875L10.375 24.21875L9.96875 23.96875L9.53125 24.15625L6.0625 25.46875L5.4375 23.6875L9.21875 22.21875C9.21875 22.21875 9.703125 22.0625 10.40625 22.0625C11.109375 22.0625 11.921875 22.210938 12.625 22.84375C13.65625 23.738281 14.449219 24.378906 15.53125 24.71875C16.613281 25.058594 17.824219 25.101563 19.875 25.09375L19.875 23.09375C17.863281 23.101563 16.8125 23.027344 16.125 22.8125C15.445313 22.597656 14.953125 22.195313 13.96875 21.34375C13.960938 21.335938 13.945313 21.351563 13.9375 21.34375C12.78125 20.3125 11.425781 20.058594 10.40625 20.0625Z" fill="#E5A814" />
</svg>