<?xml version="1.0" encoding="utf-8"?>
<svg xmlns="http://www.w3.org/2000/svg" viewBox="0 0 32 32" width="64" height="64">
  <path d="M8 4C6.346 4 5 5.346 5 7L5 25C5 26.654 6.346 28 8 28L17 28L15.574219 26L8 26C7.448 26 7 25.552 7 25C7 24.448 7.448 24 8 24L14.148438 24L12.722656 22L8 22C7.648 22 7.314 22.071594 7 22.183594L7 7C7 6.448 7.448 6 8 6L23 6L23 11L25 11L25 4L8 4 z M 11 8L11 10L9 10L9 12L11 12L11 17L13 17L13 12L15 12L15 10L13 10L13 8L11 8 z M 20 12L20 20L22 20L22 12L20 12 z M 23 13L23 20L25 20L25 13L23 13 z M 17 14L17 21.101562L15.816406 19.423828L14.183594 20.576172L17.783203 25.675781L17.857422 25.623047C18.748313 27.016637 20.236061 28 22 28L23 28C25.745455 28 28 25.745455 28 23L28 16L26 16L26 23C26 24.654545 24.654545 26 23 26L22 26C20.345455 26 19 24.654545 19 23L19 14L17 14 z" fill="#E5A814" />
</svg>