<svg width="24" height="24" viewBox="0 0 24 24" fill="none" xmlns="http://www.w3.org/2000/svg">
<path d="M12 1.6001C8.46558 1.6001 5.59998 4.4657 5.59998 8.0001C5.59998 12.8001 11.2 14.4001 11.2 17.6001C11.2 18.0417 11.5584 18.4001 12 18.4001C12.4416 18.4001 12.8 18.0417 12.8 17.6001C12.8 14.4001 18.4 12.8001 18.4 8.0001C18.4 4.4657 15.5344 1.6001 12 1.6001ZM12 6.4001C12.884 6.4001 13.6 7.1161 13.6 8.0001C13.6 8.8841 12.884 9.6001 12 9.6001C11.116 9.6001 10.4 8.8841 10.4 8.0001C10.4 7.1161 11.116 6.4001 12 6.4001ZM7.50466 14.7657C4.18066 15.3337 1.59998 16.5569 1.59998 18.4001C1.59998 21.0257 6.83198 22.4001 12 22.4001C17.168 22.4001 22.4 21.0257 22.4 18.4001C22.4 16.5569 19.8193 15.3337 16.4953 14.7657C16.4305 14.8305 16.3648 14.8947 16.3 14.9579C15.8624 15.3891 15.4553 15.7942 15.1281 16.1782C18.8177 16.6126 20.8 17.7505 20.8 18.4001C20.8 19.2153 17.6936 20.8001 12 20.8001C6.30638 20.8001 3.19998 19.2153 3.19998 18.4001C3.19998 17.7505 5.18225 16.6126 8.87185 16.1782C8.54385 15.7942 8.13678 15.3891 7.69998 14.9579C7.63598 14.8947 7.57026 14.8305 7.50466 14.7657Z" fill="white"/>
</svg>
