<svg width="24" height="24" viewBox="0 0 24 24" fill="none" xmlns="http://www.w3.org/2000/svg">
<path d="M16.98 14.3114C16.6552 14.121 16.256 14.125 15.9328 14.317L14.296 15.2922C13.9296 15.5106 13.472 15.485 13.136 15.2226C12.5552 14.769 11.62 14.0058 10.8064 13.1922C9.99282 12.3786 9.22962 11.4434 8.77602 10.8626C8.51362 10.5266 8.48802 10.069 8.70642 9.70258L9.68162 8.06578C9.87442 7.74258 9.87602 7.34018 9.68562 7.01538L7.28402 2.91298C7.05122 2.51618 6.58882 2.32098 6.14162 2.43058C5.70722 2.53618 5.14322 2.79378 4.55202 3.38578C2.70082 5.23698 1.71762 8.35938 8.67922 15.321C15.6408 22.2826 18.7624 21.3002 20.6144 19.4482C21.2072 18.8554 21.464 18.2906 21.5704 17.8554C21.6784 17.409 21.4864 16.9498 21.0904 16.7178C20.1016 16.1394 17.9688 14.8906 16.98 14.3114Z" fill="white"/>
</svg>
